Coordinates
version=1
nRows=12
nColumns=23
inDegrees=yes

Units are S.I. units (second, meters, Newtons, ...)
If the header above contains a line with 'inDegrees', this indicates whether rotational values are in degrees (yes) or radians (no).

endheader
time	pelvis_tilt	pelvis_list	pelvis_rotation	pelvis_tx	pelvis_ty	pelvis_tz	hip_flexion_r	hip_adduction_r	hip_rotation_r	knee_angle_r	knee_angle_r_beta	ankle_angle_r	subtalar_angle_r	mtp_angle_r	hip_flexion_l	hip_adduction_l	hip_rotation_l	knee_angle_l	knee_angle_l_beta	ankle_angle_l	subtalar_angle_l	mtp_angle_l
      0.00000000	     -7.40783351	      9.32939459	      5.59140737	      2.41128884	      0.98455049	      1.06777746	     15.33387384	    -12.78455276	     -0.17097940	     95.96097197	      1.67483491	     -5.24606062	    -14.40375040	      0.00000000	     29.34139139	     14.40689564	     -6.93719633	     46.54849350	      0.81242447	     20.86089916	    -11.58929745	      0.00000000
      0.00666667	     -7.12563508	      9.46417837	      5.43427138	      2.41018495	      0.98428684	      1.06806489	     17.24409079	    -13.14393643	      0.59463748	     97.38064612	      1.69961290	     -4.57051679	    -14.78749839	      0.00000000	     27.48622553	     14.44245154	     -6.68535634	     46.57221708	      0.81283853	     22.19250427	    -11.33553162	      0.00000000
      0.01333333	     -7.07578001	      9.39494299	      5.15164602	      2.40919830	      0.98366938	      1.06866739	     19.47173337	    -13.16698346	      1.46954357	     98.72133559	      1.72301235	     -3.73249198	    -14.69659585	      0.00000000	     25.87557864	     14.02371561	     -6.94997489	     46.59920985	      0.81330964	     23.85618410	     -9.91524526	      0.00000000
      0.02000000	     -6.94039542	      9.31154663	      4.94104767	      2.40826297	      0.98340062	      1.06909835	     21.52254497	    -13.14582074	      2.24207410	     99.82958447	      1.74235494	     -3.08546303	    -14.96568353	      0.00000000	     24.07084500	     13.82607743	     -6.67814125	     46.36420459	      0.80920803	     25.06513369	     -9.66616647	      0.00000000
      0.02666667	     -6.90852489	      9.01285231	      4.88699401	      2.40759337	      0.98365192	      1.06934678	     23.55428561	    -12.89635573	      2.73641292	    100.60919946	      1.75596179	     -2.69576773	    -15.11385959	      0.00000000	     22.19820706	     13.51384473	     -6.12447242	     45.79475453	      0.79926925	     25.76929740	     -9.36661902	      0.00000000
      0.03333333	     -7.06144146	      8.97241639	      4.35778794	      2.40707323	      0.98358493	      1.07015389	     25.94963624	    -12.72269224	      3.77183906	    101.32858803	      1.76851749	     -1.89566183	    -15.06093999	      0.00000000	     20.55479398	     13.01806166	     -6.82983374	     45.22702612	      0.78936052	     27.01705240	     -7.63752378	      0.00000000
      0.04000000	     -7.17004138	      8.72285404	      4.14181580	      2.40679519	      0.98451807	      1.07053855	     28.04292363	    -12.38346826	      4.32514628	    101.58903697	      1.77306318	     -1.42268539	    -15.32207247	      0.00000000	     18.65217591	     12.69317031	     -6.54672967	     44.22048047	      0.77179298	     27.44786597	     -7.25970973	      0.00000000
      0.04666667	     -7.44347023	      8.28849253	      4.08685057	      2.40680739	      0.98591614	      1.07065489	     30.14621589	    -11.92835124	      4.53985265	    101.49201648	      1.77136985	     -1.09050051	    -15.44323486	      0.00000000	     16.82123608	     12.25389194	     -6.05690788	     43.02219754	      0.75087900	     27.64250313	     -6.84219074	      0.00000000
      0.05333333	     -7.54629627	      8.03035870	      3.74102422	      2.40732407	      0.98805155	      1.07114686	     31.99641782	    -11.43393089	      5.01287344	    101.08779189	      1.76431480	     -0.69683625	    -15.80330487	      0.00000000	     14.64428394	     11.82932057	     -6.09851265	     41.43659438	      0.72320500	     27.53195333	     -6.04740325	      0.00000000
      0.06000000	     -7.67964648	      7.48275541	      3.62676107	      2.40816163	      0.99080483	      1.07132894	     33.62895832	    -10.75919822	      4.99396922	    100.28869468	      1.75036792	     -0.43981634	    -16.15420187	      0.00000000	     12.44021026	     11.18461901	     -5.83516323	     39.74626226	      0.69370314	     27.21116276	     -5.16543298	      0.00000000
      0.06666667	     -7.88507587	      6.84493722	      3.56385005	      2.40928278	      0.99397375	      1.07139207	     35.17518459	    -10.01037792	      4.79196479	     99.17403233	      1.73091340	     -0.20112399	    -16.54202442	      0.00000000	     10.26935557	     10.45964135	     -5.54277100	     37.90021053	      0.66148346	     26.54425446	     -4.37238748	      0.00000000
      0.07333333	     -8.02162224	      6.13181264	      3.52630452	      2.41078407	      0.99769045	      1.07137752	     36.45716295	     -9.18828068	      4.43714013	     97.73345606	      1.70577060	     -0.02310741	    -17.03008637	      0.00000000	      7.97262175	      9.66012491	     -5.23383363	     35.87552380	      0.62614601	     25.48442641	     -3.64755799	      0.00000000
